<?xml version="1.0" encoding="UTF-8" standalone="no"?>
<svg
   xmlns:dc="http://purl.org/dc/elements/1.1/"
   xmlns:cc="http://creativecommons.org/ns#"
   xmlns:rdf="http://www.w3.org/1999/02/22-rdf-syntax-ns#"
   xmlns:svg="http://www.w3.org/2000/svg"
   xmlns="http://www.w3.org/2000/svg"
   id="svg2"
   version="1.1"
   viewBox="0 0 742.40002 340.11429"
   height="340.11429pt"
   width="742.40002pt">
  <metadata
     id="metadata34">
    <rdf:RDF>
      <cc:Work
         rdf:about="">
        <dc:format>image/svg+xml</dc:format>
        <dc:type
           rdf:resource="http://purl.org/dc/dcmitype/StillImage" />
        <dc:title></dc:title>
      </cc:Work>
    </rdf:RDF>
  </metadata>
  <defs
     id="defs32" />
  <path
     style="fill:none"
     id="path4"
     d="m 0,0 742.4,0 0,340.11429 -742.4,0 L 0,0 Z" />
  <path
     style="fill:#fff"
     id="path6"
     d="m 366.76714,21.09429 c 9.89,-0.24 19.79,-0.07 29.69,-0.1 8.57,0.25 17.79,0.41 25.22,5.26 6.3,4.27 8.67,12.01 9.64,19.2 1.51,11.61 1.05,23.37 1.14,35.06 -0.34,11.85 0.5,24.36 -4.53,35.42 -3.36,7.06 -11.08,10.56 -18.44,11.69 -12.62,1.27 -25.31,0.67 -37.96,0.81 -9.25,-0.35 -19.36,-0.02 -27.21,-5.71 -6.91,-5.11 -8.7,-14.15 -9.52,-22.18 -0.89,-11 -0.6,-22.05 -0.63,-33.07 0.23,-10.39 -0.3,-21.13 3.23,-31.07 1.88,-5.81 6.56,-10.64 12.35,-12.6 5.42,-2.1 11.27,-2.48 17.02,-2.71 z" />
  <path
     style="fill:#fff"
     id="path8"
     d="m 157.10714,30.21429 c 1,-2.41 1.99,-4.84 3.27,-7.12 3.96,0.16 7.93,-0.02 11.9,0.2 14.63,34.34 29.45,68.59 44.09,102.93 -3.19,0.04 -6.38,0.03 -9.56,-0.04 -3.4,-7.99 -6.32,-16.19 -9.87,-24.12 -20.57,0.25 -41.15,0.05 -61.73,0.11 -3.34,8 -6.32,16.16 -9.81,24.1 -3.07,-0.05 -6.13,-0.06 -9.2,0.05 0.85,-3.28 2.44,-6.27 3.71,-9.38 12.4,-28.91 24.8,-57.82 37.2,-86.73 z" />
  <path
     style="fill:#fff"
     id="path10"
     d="m 231.23714,23.19429 c 18.73,-0.04 37.45,-0.01 56.18,-0.02 6.06,-0.05 12.2,-0.07 18.14,1.28 5.32,1.44 9.38,6.02 10.21,11.47 1.17,7.88 1.52,16.19 -0.96,23.86 -1.52,4.7 -5.16,8.72 -10.14,9.63 -0.09,0.47 -0.27,1.41 -0.36,1.88 3.88,0.58 7.84,1.85 10.21,5.21 4.76,5.42 5.44,13.09 5.34,20.01 -0.25,7.14 -0.19,14.93 -4.41,21.06 -3.57,5.13 -9.99,7.08 -15.88,7.94 -6.36,0.6 -12.76,0.81 -19.14,0.73 -16.35,0.02 -32.7,-0.04 -49.05,0.03 -0.38,-34.35 -0.09,-68.72 -0.14,-103.08 z" />
  <path
     style="fill:#fff"
     id="path12"
     d="m 446.71714,23.44429 c 2.77,-0.4 5.59,-0.42 8.37,0 -0.11,22.68 -0.15,45.36 0.05,68.03 0.31,7.08 0.16,14.59 3.52,21.04 2.96,5.11 9.32,6.36 14.77,6.55 13.04,0.56 26.12,0.58 39.16,-0.04 5.19,-0.22 11.06,-1.54 14,-6.27 3.42,-6.14 3.4,-13.4 3.73,-20.22 0.22,-23.12 0.02,-46.24 0.07,-69.36 2.73,0 5.47,0 8.22,0.01 0.02,19.78 0.05,39.57 -0.02,59.36 -0.16,10.32 0.18,21 -3.39,30.86 -1.94,5.84 -6.81,10.55 -12.67,12.37 -6.02,2.55 -12.67,2.15 -19.05,2.63 -11.7,-0.02 -23.46,0.44 -35.1,-0.98 -4.82,-1.2 -9.89,-2.75 -13.4,-6.46 -3.77,-3.49 -5.41,-8.57 -6.51,-13.43 -1.72,-8.56 -1.58,-17.32 -1.68,-26 -0.08,-19.36 0.05,-38.72 -0.07,-58.09 z" />
  <path
     style="fill:#fff"
     id="path14"
     d="m 552.85714,23.43429 c 14.49,-0.6 29.02,-0.09 43.53,-0.26 13.99,0.05 27.99,-0.1 41.99,0.08 0.01,2.97 -0.01,5.93 -0.05,8.9 -12.85,0.04 -25.7,0.02 -38.54,0.02 -0.05,27.8 -0.01,55.59 -0.03,83.39 -0.01,3.57 0.16,7.16 -0.22,10.72 -2.67,-0.04 -5.34,-0.06 -7.99,-0.07 -0.08,-31.34 0,-62.69 -0.05,-94.03 -11.34,0.01 -22.68,-0.04 -34.02,0.02 -1.47,-0.08 -3.03,0.21 -4.41,-0.37 -0.31,-2.79 -0.12,-5.61 -0.21,-8.4 z" />
  <path
     style="fill:#f46c6c"
     id="path16"
     d="m 166.14714,29.06429 c 9.05,21.34 17.93,42.74 26.99,64.08 -17.97,0.08 -35.95,0.01 -53.92,0.03 8.96,-21.38 17.95,-42.74 26.93,-64.11 z" />
  <path
     style="fill:#f46c6c"
     id="path18"
     d="m 367.74714,30.04429 c 12.54,-0.01 25.1,-0.33 37.63,0.29 4.35,0.27 9.13,0.69 12.61,3.63 3.18,2.51 4.31,6.67 5.07,10.47 1.45,9.64 1,19.41 1.16,29.12 -0.14,10.03 0.29,20.11 -0.96,30.08 -0.68,4.86 -2.23,10.28 -6.78,12.89 -5.47,3.06 -12,2.44 -18.03,2.86 -10.34,0.07 -20.69,0.11 -31.03,-0.03 -5.94,-0.4 -12.43,0.18 -17.72,-3.06 -4.35,-2.67 -5.69,-8.01 -6.38,-12.72 -1.29,-9.97 -0.76,-20.05 -0.93,-30.08 0.18,-9.37 -0.36,-18.8 0.95,-28.11 0.69,-4.68 2.22,-9.87 6.59,-12.4 5.37,-3.12 11.85,-2.52 17.82,-2.94 z" />
  <path
     style="fill:#f46c6c"
     id="path20"
     d="m 239.47714,32.17429 c 17.31,0.02 34.62,-0.04 51.93,0.03 4.41,0.2 9.24,-0.16 13.11,2.36 4.14,3.29 3.82,9.18 3.91,13.94 -0.2,5.46 -0.2,12.32 -5.36,15.66 -5.07,2.77 -11.08,2.5 -16.67,2.71 -15.64,0.11 -31.28,0.01 -46.92,0.05 0,-11.59 0,-23.17 0,-34.75 z" />
  <path
     style="fill:#f46c6c"
     id="path22"
     d="m 239.48714,75.90429 c 16.54,0.09 33.07,-0.1 49.6,0.11 5.74,0.22 11.86,-0.04 17.09,2.7 3.51,1.87 4.84,6.01 5.17,9.73 0.42,5.4 0.38,10.85 -0.28,16.23 -0.54,3.81 -2.08,7.9 -5.63,9.86 -4.83,2.61 -10.53,2.39 -15.85,2.61 -16.7,0.23 -33.4,0.01 -50.1,0.11 -0.01,-13.78 -0.01,-27.56 0,-41.35 z" />
  <path
     style="fill:#fff"
     id="path24"
     d="m 8.87714,149.83429 c 5.17,-0.56 10.37,-0.33 15.56,-0.36 231.33,-0.01 462.65,0 693.97,-0.01 5.49,0.04 10.98,-0.13 16.46,0.2 -117.82,24.47 -235.6,49.16 -353.4,73.74 -1.39,0.28 -2.78,0.25 -4.15,-0.08 -113.9,-22.82 -227.82,-45.57 -341.73,-68.36 -8.91,-1.7 -17.75,-3.76 -26.71,-5.13 z" />
  <path
     style="fill:#fff"
     id="path26"
     d="m 548.56714,198.10429 c 61.38,-12.54 122.73,-25.19 184.13,-37.65 -11.08,11.64 -22.47,23 -33.32,34.85 -96.28,10.57 -192.56,21.1 -288.83,31.68 -1.59,0.15 -3.18,0.22 -4.76,0.19 47.65,-9.39 95.17,-19.44 142.78,-29.07 z" />
  <path
     style="fill:#fff"
     id="path28"
     d="m 393.39714,235.93429 c 98.61,-8.68 197.17,-17.97 295.78,-26.7 -38.04,40.77 -76.32,81.31 -114.33,122.11 -60.49,-31.79 -120.87,-63.79 -181.45,-95.41 z" />
</svg>
