<?xml version="1.0" encoding="UTF-8" ?>
<!DOCTYPE svg PUBLIC "-//W3C//DTD SVG 1.1//EN" "http://www.w3.org/Graphics/SVG/1.1/DTD/svg11.dtd">
<svg width="1024pt" height="768pt" viewBox="0 0 1024 768" version="1.1" xmlns="http://www.w3.org/2000/svg">
<path fill="transparent" d=" M 0.00 0.00 L 1024.00 0.00 L 1024.00 768.00 L 0.00 768.00 L 0.00 0.00 Z" />
<path fill="#18598c" d=" M 163.94 192.17 C 189.12 192.23 214.30 192.06 239.47 192.26 C 239.49 194.51 239.51 196.76 239.58 199.01 C 214.34 199.32 189.09 199.07 163.84 199.14 C 163.84 196.81 163.85 194.49 163.94 192.17 Z" />
<path fill="#18598c" d=" M 41.44 212.65 C 48.69 210.18 56.43 210.62 63.96 210.04 C 77.13 209.98 90.33 209.72 103.47 210.79 C 111.00 211.67 119.33 213.41 124.41 219.54 C 128.72 224.65 129.26 231.63 129.47 238.02 C 126.29 238.02 123.12 238.02 119.94 238.02 C 119.46 232.81 119.42 226.62 115.19 222.86 C 111.65 219.20 106.27 218.78 101.51 218.19 C 89.70 217.57 77.88 217.90 66.06 217.81 C 58.82 218.00 51.42 217.54 44.38 219.60 C 41.70 220.50 38.98 221.93 37.45 224.40 C 34.68 228.70 34.40 233.98 34.07 238.93 C 33.89 250.45 33.75 261.99 34.21 273.51 C 34.71 279.36 35.56 286.67 41.40 289.70 C 48.03 293.07 55.73 292.27 62.93 292.71 C 75.93 292.71 88.96 293.06 101.94 292.27 C 107.09 291.71 113.03 290.88 116.41 286.50 C 119.79 281.99 119.57 276.05 119.90 270.71 C 123.08 270.67 126.27 270.67 129.46 270.78 C 129.39 279.09 128.21 288.71 121.01 294.05 C 111.71 300.50 99.83 300.15 89.00 300.52 C 75.95 300.41 62.86 300.97 49.86 299.71 C 42.25 298.64 33.76 296.48 29.25 289.68 C 23.47 280.24 24.61 268.67 24.29 258.08 C 24.58 247.30 23.44 236.14 26.86 225.73 C 28.94 219.12 34.83 214.31 41.44 212.65 Z" />
<path fill="#18598c" d=" M 182.12 210.20 C 199.06 209.89 216.05 209.58 232.95 210.88 C 240.41 211.98 248.73 214.20 253.11 220.89 C 258.75 230.19 257.81 241.56 258.08 251.99 C 257.86 262.62 258.82 273.52 255.82 283.85 C 254.25 289.29 250.45 293.94 245.28 296.32 C 235.77 300.55 225.14 300.29 214.95 300.53 C 200.60 300.35 186.21 301.02 171.88 299.81 C 164.60 298.83 156.70 297.07 151.67 291.26 C 146.73 285.01 145.98 276.69 145.71 269.01 C 145.52 258.35 145.37 247.67 145.94 237.01 C 146.53 229.39 148.39 220.69 155.20 216.17 C 163.03 210.74 172.96 210.65 182.12 210.20 Z" />
<path fill="#18598c" d=" M 457.62 210.86 C 475.53 209.61 493.55 209.59 511.47 210.79 C 518.99 211.66 527.31 213.40 532.40 219.51 C 536.72 224.62 537.26 231.62 537.48 238.02 C 534.29 238.02 531.12 238.02 527.94 238.02 C 527.51 232.76 527.41 226.58 523.15 222.82 C 519.46 219.07 513.85 218.71 508.92 218.15 C 493.97 217.60 479.00 217.76 464.04 217.98 C 458.09 218.29 451.42 218.59 446.76 222.78 C 442.76 227.11 442.44 233.35 442.08 238.94 C 441.88 250.00 441.83 261.07 442.14 272.13 C 442.54 277.44 442.92 283.27 446.51 287.54 C 450.55 291.57 456.61 292.07 462.00 292.41 C 476.99 292.94 492.00 292.92 506.99 292.47 C 512.48 292.09 518.58 291.70 523.00 288.03 C 527.79 283.68 527.57 276.64 527.91 270.71 C 531.08 270.67 534.25 270.69 537.42 270.74 C 537.46 279.07 536.20 288.70 529.01 294.05 C 520.04 300.30 508.57 300.15 498.09 300.50 C 484.69 300.42 471.24 300.99 457.88 299.71 C 449.84 298.63 440.66 296.13 436.53 288.44 C 431.17 278.18 432.69 266.15 432.30 254.99 C 432.67 244.13 431.28 232.48 436.35 222.46 C 440.32 214.63 449.56 211.96 457.62 210.86 Z" />
<path fill="#18598c" d=" M 277.92 211.90 C 300.28 211.92 322.63 211.83 344.99 211.94 C 354.55 212.62 364.98 212.23 373.32 217.72 C 379.52 221.54 381.78 229.09 382.48 235.93 C 383.41 245.94 383.01 256.02 382.99 266.06 C 382.76 274.02 382.37 282.74 377.31 289.33 C 372.57 294.98 365.01 296.77 358.06 297.90 C 350.72 298.46 343.36 298.77 336.00 298.69 C 316.66 298.69 297.31 298.69 277.96 298.69 C 277.86 269.76 277.94 240.83 277.92 211.90 Z" />
<path fill="#18598c" d=" M 402.92 211.91 C 406.14 211.87 409.37 211.82 412.60 212.06 C 412.24 240.94 412.86 269.84 412.29 298.71 C 409.17 298.68 406.05 298.69 402.94 298.68 C 402.89 269.75 402.92 240.83 402.92 211.91 Z" />
<path fill="#18598c" d=" M 601.03 211.92 C 605.67 211.88 610.32 211.88 614.96 211.92 C 631.84 240.74 648.56 269.66 665.51 298.44 C 661.82 298.93 658.10 298.63 654.40 298.65 C 650.63 291.96 647.05 285.17 643.32 278.46 C 619.77 278.48 596.22 278.47 572.66 278.47 C 568.94 285.18 565.36 291.98 561.58 298.66 C 557.94 298.70 554.31 298.67 550.68 298.74 C 555.83 288.72 561.96 279.21 567.50 269.39 C 578.68 250.23 589.84 231.07 601.03 211.92 Z" />
<path fill="#18598c" d=" M 678.48 212.04 C 711.07 211.66 743.68 212.09 776.28 211.82 C 776.47 214.44 776.56 217.10 776.09 219.70 C 761.51 219.56 746.92 219.74 732.34 219.61 C 732.03 245.98 732.62 272.38 732.05 298.74 C 729.00 298.67 725.96 298.66 722.93 298.74 C 722.30 272.39 722.90 246.00 722.63 219.63 C 708.06 219.74 693.49 219.52 678.92 219.74 C 678.36 217.21 678.53 214.61 678.48 212.04 Z" />
<path fill="#18598c" d=" M 796.19 211.95 C 825.13 211.83 854.08 211.92 883.02 211.91 C 883.02 214.49 883.01 217.07 882.99 219.65 C 857.27 219.66 831.55 219.64 805.83 219.66 C 805.80 229.93 805.81 240.19 805.82 250.46 C 830.12 250.53 854.43 250.37 878.72 250.54 C 880.10 252.62 879.00 255.74 879.31 258.21 C 854.82 258.28 830.32 258.21 805.83 258.24 C 805.80 269.14 805.81 280.03 805.82 290.93 C 831.55 290.94 857.29 290.92 883.02 290.94 C 883.02 293.52 883.01 296.10 883.00 298.68 C 854.08 298.67 825.16 298.73 796.24 298.65 C 796.12 269.75 796.22 240.85 796.19 211.95 Z" />
<path fill="#18598c" d=" M 899.12 211.96 C 921.42 211.85 943.72 211.87 966.02 211.94 C 975.61 212.61 986.07 212.20 994.46 217.66 C 1001.03 221.65 1003.17 229.72 1003.82 236.90 C 1004.47 246.23 1004.36 255.61 1004.22 264.96 C 1004.03 273.34 1003.82 282.60 998.40 289.50 C 992.80 295.80 983.92 297.46 975.91 298.17 C 950.35 299.24 924.74 298.47 899.16 298.66 C 899.07 269.76 899.15 240.86 899.12 211.96 Z" />
<path fill="#fefefe" d=" M 173.15 218.21 C 188.74 217.47 204.36 217.91 219.97 217.85 C 227.23 218.12 235.12 217.52 241.65 221.28 C 246.63 224.34 247.62 230.69 248.08 236.04 C 248.70 246.67 248.47 257.34 248.38 267.98 C 248.10 274.27 248.27 281.14 244.62 286.58 C 241.43 290.80 235.81 291.78 230.87 292.25 C 221.58 292.85 212.27 292.77 202.96 292.76 C 192.66 292.74 182.34 292.94 172.06 292.18 C 167.61 291.71 162.79 290.77 159.61 287.35 C 155.89 282.69 155.69 276.44 155.34 270.75 C 155.08 260.03 155.05 249.30 155.35 238.57 C 155.73 233.17 156.07 227.17 159.86 222.91 C 163.39 219.50 168.48 218.72 173.15 218.21 Z" />
<path fill="#fefefe" d=" M 577.36 270.68 C 587.59 252.83 597.78 234.95 607.99 217.09 C 618.21 234.95 628.40 252.83 638.63 270.69 C 618.21 270.70 597.78 270.71 577.36 270.68 Z" />
<path fill="#fefefe" d=" M 287.50 290.91 C 287.55 267.16 287.48 243.41 287.53 219.65 C 309.02 219.78 330.51 219.37 351.99 219.90 C 357.88 220.23 364.64 220.41 369.07 224.88 C 373.35 230.23 373.13 237.52 373.39 244.00 C 373.45 253.99 373.73 264.01 373.02 273.98 C 372.57 279.22 371.16 285.44 365.99 287.99 C 359.49 291.12 352.05 290.49 345.05 290.88 C 325.86 290.99 306.68 290.92 287.50 290.91 Z" />
<path fill="#fefefe" d=" M 908.76 219.66 C 930.16 219.77 951.57 219.38 972.97 219.90 C 978.66 220.20 985.03 220.33 989.62 224.20 C 993.77 228.31 994.14 234.55 994.51 240.04 C 994.80 250.32 994.81 260.61 994.49 270.88 C 994.14 276.12 993.69 281.94 989.98 286.02 C 984.84 290.62 977.43 290.41 970.98 290.73 C 950.24 291.17 929.49 290.81 908.75 290.93 C 908.75 267.17 908.74 243.42 908.76 219.66 Z" />
<path fill="#18598c" d=" M 84.61 323.39 C 88.74 322.84 92.91 322.97 97.06 322.98 C 390.73 322.98 684.40 322.98 978.06 322.98 C 986.19 323.11 994.33 322.66 1002.44 323.31 C 971.73 329.31 941.16 336.04 910.51 342.32 C 793.65 366.73 676.79 391.12 559.93 415.53 C 557.27 415.96 554.61 417.04 551.89 416.64 C 399.96 386.27 248.04 355.87 96.11 325.49 C 92.30 324.66 88.46 323.99 84.61 323.39 Z" />
<path fill="#18598c" d=" M 644.85 409.43 C 763.04 385.24 881.22 361.00 999.42 336.86 C 990.08 346.67 980.63 356.38 971.26 366.16 C 966.75 371.10 961.68 375.55 957.55 380.82 C 848.35 393.01 739.10 404.79 629.88 416.84 C 614.52 418.38 599.21 420.47 583.83 421.68 C 604.25 418.03 624.50 413.45 644.85 409.43 Z" />
<path fill="#18598c" d=" M 570.80 432.30 C 695.32 421.24 819.80 409.65 944.31 398.51 C 924.30 420.41 903.77 441.85 883.55 463.57 C 855.70 493.33 827.75 523.02 799.94 552.84 C 723.54 512.70 647.26 472.33 570.80 432.30 Z" />
</svg>
