<?xml version="1.0" encoding="UTF-8" standalone="no"?>
<svg
   xmlns:dc="http://purl.org/dc/elements/1.1/"
   xmlns:cc="http://creativecommons.org/ns#"
   xmlns:rdf="http://www.w3.org/1999/02/22-rdf-syntax-ns#"
   xmlns:svg="http://www.w3.org/2000/svg"
   xmlns="http://www.w3.org/2000/svg"
   id="svg5663"
   version="1.1"
   viewBox="0 0 1024 588.79999"
   height="588.79999pt"
   width="1024pt">
  <metadata
     id="metadata5709">
    <rdf:RDF>
      <cc:Work
         rdf:about="">
        <dc:format>image/svg+xml</dc:format>
        <dc:type
           rdf:resource="http://purl.org/dc/dcmitype/StillImage" />
        <dc:title></dc:title>
      </cc:Work>
    </rdf:RDF>
  </metadata>
  <defs
     id="defs5707" />
  <path
     style="fill:transparent"
     id="path5665"
     d="m 0,0 1024,0 0,588.8 L 0,588.8 0,0 Z" />
  <path
     style="fill:#fff"
     id="path5667"
     d="m 130.72,16.91 c 19.46,0.06 38.91,0.15 58.37,0.22 0.03,1.71 0.04,3.41 0.05,5.12 -19.51,-0.09 -39.03,-0.1 -58.54,-0.27 0.02,-1.7 0.06,-3.39 0.12,-5.07 z" />
  <path
     style="fill:#fff"
     id="path5669"
     d="m 46.89,31.84 c 9.33,-0.99 18.73,-0.62 28.1,-0.63 7.85,0.25 16.6,0.36 22.89,5.74 5.98,5.48 6.51,14.2 6.64,21.78 -2.19,0.01 -4.37,0.02 -6.56,0.02 -0.52,-5.99 -0.42,-13.15 -5.63,-17.24 -5.08,-3.38 -11.5,-2.75 -17.3,-3.03 -8.69,0.02 -17.39,-0.22 -26.07,0.3 -4.33,0.27 -9.22,1.42 -11.67,5.36 -2.74,4.78 -2.78,10.48 -3.1,15.84 -0.18,11.11 -0.22,22.23 0.05,33.34 0.39,5.35 0.43,11.15 3.49,15.78 3.32,4.37 9.29,4.69 14.31,4.89 9.64,0.23 19.3,0.3 28.95,-0.07 4.92,-0.29 10.8,-0.87 13.78,-5.37 3.17,-4.91 2.71,-10.99 3.18,-16.56 2.19,0.02 4.37,0.04 6.55,0.1 -0.15,7.91 -0.42,16.89 -6.21,22.99 -5.84,5.7 -14.53,6.05 -22.21,6.29 -9.72,0.04 -19.47,0.39 -29.15,-0.59 -4.71,-0.79 -9.65,-2.31 -12.99,-5.91 -3.41,-3.43 -4.72,-8.33 -5.53,-12.96 -1.47,-10.29 -0.93,-20.72 -1.04,-31.08 0.23,-9.71 -0.43,-19.96 3.68,-29.02 2.84,-6.1 9.51,-9.09 15.84,-9.97 z" />
  <path
     style="fill:#fff"
     id="path5671"
     d="m 143.33,31.32 c 11.2,-0.18 22.44,-0.42 33.63,0.24 6.9,0.4 14.57,2.84 18.2,9.2 3.28,6.11 3.75,13.23 4.07,20.03 0.26,10.64 0.28,21.3 -0.04,31.94 -0.37,6.72 -0.89,13.83 -4.41,19.75 -3.17,5.05 -9.08,7.36 -14.72,8.28 -10.32,1.09 -20.7,0.53 -31.05,0.68 -7.85,-0.22 -16.33,0.06 -23.17,-4.42 -5.92,-3.98 -7.68,-11.44 -8.4,-18.1 -0.93,-10.02 -0.55,-20.1 -0.6,-30.14 0.21,-9.6 -0.35,-19.94 4.53,-28.58 4.64,-7.26 14.01,-8.76 21.96,-8.88 z" />
  <path
     style="fill:#fff"
     id="path5673"
     d="m 500.11,34.04 c 5.91,-2.77 12.55,-2.62 18.93,-2.86 9.03,0.05 18.1,-0.31 27.1,0.66 5.65,0.84 11.71,2.9 15.02,7.88 3.79,5.55 4.08,12.54 4.22,19.03 -2.22,-0.01 -4.42,-0.02 -6.62,-0.06 -0.44,-5.11 -0.23,-10.85 -3.56,-15.09 -2.73,-3.88 -7.85,-4.64 -12.24,-4.89 -10.31,-0.38 -20.63,-0.36 -30.94,-0.05 -4.75,0.17 -10.27,0.74 -13.39,4.79 -3.05,4.49 -3.17,10.16 -3.53,15.38 -0.19,11.33 -0.18,22.66 -0.01,33.99 0.33,5.3 0.42,10.94 3.11,15.69 2.08,3.36 6.09,4.73 9.84,5.14 8.28,0.76 16.62,0.41 24.94,0.5 5.63,-0.14 11.39,0.13 16.86,-1.45 3.11,-0.87 5.72,-3.22 6.93,-6.21 1.9,-4.58 1.6,-9.64 2.09,-14.48 2.13,0 4.26,-0.01 6.4,-0.01 0.09,8.1 -0.38,17.42 -6.5,23.47 -7.01,6.22 -17.02,5.69 -25.79,5.97 -9.64,-0.26 -19.49,0.73 -28.96,-1.48 -5.47,-1.32 -10.58,-4.94 -12.61,-10.33 -3.73,-9.48 -2.93,-19.91 -3.17,-29.88 0.19,-10.73 -0.6,-21.61 1.67,-32.17 1.19,-5.72 4.6,-11.3 10.21,-13.54 z" />
  <path
     style="fill:#fff"
     id="path5675"
     d="m 214.46,33.06 c 15.51,-0.1 31.03,-0.03 46.55,-0.04 7.71,0.33 16.2,0.11 22.63,5.08 6.21,4.89 7.1,13.44 7.65,20.76 0.45,11.62 0.45,23.28 0,34.9 -0.55,7.31 -1.44,15.84 -7.63,20.73 -6.43,4.98 -14.94,4.77 -22.65,5.09 -15.52,-0.01 -31.05,0.07 -46.56,-0.05 -0.09,-28.82 -0.12,-57.65 0.01,-86.47 z" />
  <path
     style="fill:#fff"
     id="path5677"
     d="m 306.77,32.98 c 2.12,0.02 4.24,0.03 6.36,0.03 0.28,28.85 0.26,57.72 0,86.58 -2.11,0 -4.22,0.02 -6.33,0.06 -0.54,-26.6 -0.05,-53.22 -0.24,-79.83 -0.04,-2.28 0.03,-4.57 0.21,-6.84 z" />
  <path
     style="fill:#fff"
     id="path5679"
     d="m 328.29,33.06 c 23.92,-0.1 47.83,-0.02 71.74,-0.04 0.01,2.42 0.01,4.85 0.01,7.28 -10.84,0.01 -21.68,-0.01 -32.51,0.01 -0.06,26.4 0.07,52.8 -0.06,79.21 -2.19,0.05 -4.37,0.07 -6.55,0.09 -0.25,-26.43 -0.01,-52.87 -0.12,-79.31 -10.79,0.01 -21.59,0 -32.38,0 -0.16,-2.41 -0.2,-4.83 -0.13,-7.24 z" />
  <path
     style="fill:#fff"
     id="path5681"
     d="m 415.03,33.03 c 21.2,-0.01 42.4,-0.06 63.6,0.03 -0.1,2.34 0.55,4.91 -0.36,7.12 -18.83,0.3 -37.67,0.02 -56.51,0.13 -0.02,10.48 0,20.96 -0.01,31.44 18.09,0.03 36.19,-0.05 54.28,0.04 -0.01,2.39 -0.02,4.79 -0.05,7.18 -18.07,0.09 -36.14,0.02 -54.22,0.04 -0.02,11.1 -0.02,22.19 0,33.29 18.83,0.11 37.67,-0.2 56.49,0.15 0.98,2.13 0.25,4.76 0.38,7.09 -21.21,0.09 -42.42,0.06 -63.62,0.02 -0.03,-28.84 -0.09,-57.69 0.02,-86.53 z" />
  <path
     style="fill:#fff"
     id="path5683"
     d="m 580.42,33.07 c 2.2,-0.04 4.41,-0.06 6.62,-0.07 0.05,12.91 0.03,25.83 0.01,38.74 20.36,0.02 40.73,0.01 61.09,0.01 0.02,-12.91 -0.04,-25.81 0.03,-38.71 2.22,-0.02 4.45,-0.02 6.68,0 0.05,28.84 0.05,57.68 0,86.53 -2.23,0.01 -4.46,0.01 -6.68,0 -0.08,-13.52 0,-27.04 -0.04,-40.55 -20.35,-0.02 -40.71,0 -61.06,-0.01 -0.02,13.53 0.04,27.06 -0.03,40.59 -2.21,-0.01 -4.42,-0.03 -6.63,-0.07 -0.08,-28.82 -0.09,-57.64 0.01,-86.46 z" />
  <path
     style="fill:#fff"
     id="path5685"
     d="m 669.92,33.01 c 23.88,0.04 47.76,-0.06 71.64,0.05 -0.11,2.32 0.59,4.91 -0.35,7.06 -10.69,0.44 -21.43,0.05 -32.13,0.18 -0.03,26.43 0.04,52.87 -0.04,79.3 -2.21,-0.01 -4.42,-0.03 -6.61,-0.06 -0.14,-26.41 -0.01,-52.82 -0.07,-79.24 -10.8,0.02 -21.6,-0.05 -32.4,0.04 -0.1,-2.44 -0.11,-4.89 -0.04,-7.33 z" />
  <path
     style="fill:#fff"
     id="path5687"
     d="m 753.97,33 c 2.2,0.01 4.41,0.02 6.62,0.06 0.16,16.59 0,33.18 0.08,49.77 0.27,7.96 -0.5,16.27 2.33,23.87 1.55,4.54 6.47,6.59 10.91,6.97 9.34,0.77 18.72,0.41 28.08,0.45 5.32,-0.28 11.08,0.21 15.91,-2.47 3.81,-2.17 5.09,-6.72 5.72,-10.77 1.03,-7.65 0.69,-15.39 0.8,-23.09 0.03,-14.91 -0.11,-29.82 0.02,-44.72 2.2,-0.04 4.4,-0.06 6.62,-0.07 0.12,16.94 0.07,33.87 0.03,50.81 -0.15,8.92 0.12,18.26 -3.49,26.62 -2.34,5.54 -7.99,8.7 -13.63,9.91 -9.24,1.6 -18.67,0.94 -28,1.1 -6.44,-0.25 -13.13,0.05 -19.19,-2.48 -4.56,-1.61 -8.28,-5.33 -9.9,-9.88 C 754.31,102.34 754.14,95 753.99,87.87 753.92,69.58 753.94,51.29 753.97,33 Z" />
  <path
     style="fill:#fff"
     id="path5689"
     d="m 846.13,33.04 c 16.33,0.06 32.67,-0.27 48.99,0.18 6.81,0.41 14.22,0.35 20.11,4.32 3.76,2.56 4.92,7.35 5.19,11.63 0.28,6.58 0.46,13.22 -0.61,19.74 -0.6,3.17 -1.65,6.44 -3.98,8.77 -1.75,1.94 -4.42,2.42 -6.68,3.49 -0.61,2 2,1.85 3.19,2.63 4.79,1.73 6.21,7.35 6.59,11.91 0.49,7.95 0.39,15.94 0.17,23.9 -2.09,-0.27 -4.68,0.59 -6.44,-0.53 -0.49,-8.42 0.38,-16.9 -0.54,-25.29 -0.3,-3.53 -2.6,-7.02 -6.21,-7.8 -6.81,-1.76 -13.93,-1.28 -20.9,-1.44 -10.72,0.02 -21.44,-0.01 -32.16,0.01 -0.05,11.67 0.04,23.34 -0.04,35 -2.24,0.02 -4.46,0.02 -6.68,0.01 -0.05,-28.84 -0.05,-57.68 0,-86.53 z" />
  <path
     style="fill:#fff"
     id="path5691"
     d="m 935.75,33 c 21.11,0.03 42.22,0.02 63.34,0 0.19,2.45 0.15,4.92 -0.04,7.37 -18.92,-0.15 -37.84,-0.04 -56.75,-0.06 0,10.48 0.01,20.96 -0.01,31.44 18.08,0 36.16,-0.01 54.23,0.01 0,2.37 0.01,4.75 0.05,7.12 -18.09,0.31 -36.18,0.05 -54.27,0.13 0,11.1 -0.01,22.2 0,33.3 18.91,-0.06 37.83,0.09 56.74,-0.08 0.21,2.45 0.24,4.91 0.04,7.37 -21.11,-0.02 -42.22,-0.03 -63.34,0 -0.38,-20.59 -0.05,-41.2 -0.16,-61.8 0.1,-8.27 -0.21,-16.54 0.17,-24.8 z" />
  <path
     style="fill:#f46c6c"
     id="path5693"
     d="m 136.21,39 c 11.58,-0.97 23.22,-0.42 34.82,-0.5 5.98,0.33 13.23,-0.36 17.63,4.56 3.27,4.28 3.42,9.96 3.81,15.12 0.35,11.16 0.27,22.33 0.11,33.5 -0.33,5.84 -0.22,12.18 -3.46,17.3 -3.74,4.97 -10.6,4.83 -16.2,5.07 -11.65,0.08 -23.31,0.36 -34.95,-0.26 -4.51,-0.29 -9.7,-1.79 -11.74,-6.24 -2.99,-6.82 -2.43,-14.49 -2.68,-21.76 -0.03,-9.31 -0.14,-18.61 0.18,-27.91 0.31,-4.8 0.59,-9.91 3.21,-14.1 2.09,-3.04 5.77,-4.32 9.27,-4.78 z" />
  <path
     style="fill:#f46c6c"
     id="path5695"
     d="m 221.11,40.29 c 14.73,0.09 29.46,-0.14 44.19,0.13 5.33,0.3 11.66,-0.01 15.58,4.29 3.28,4.26 3.43,9.94 3.81,15.08 0.32,10.95 0.3,21.9 0.02,32.85 -0.39,5.17 -0.51,10.85 -3.76,15.17 -3.72,4.23 -9.85,4.08 -15.01,4.36 -14.94,0.31 -29.89,0.04 -44.84,0.14 -0.01,-24.01 -0.03,-48.01 0.01,-72.02 z" />
  <path
     style="fill:#f46c6c"
     id="path5697"
     d="m 852.89,40.28 c 15.36,0.11 30.72,-0.14 46.08,0.16 3.97,0.22 8.34,0.2 11.73,2.61 2.88,2.32 3,6.35 3.16,9.74 0.02,5.3 0.33,10.64 -0.49,15.9 -0.46,2.78 -2.02,5.61 -4.78,6.66 -4.93,2.01 -10.39,1.66 -15.6,1.88 -13.38,0.09 -26.76,0.02 -40.14,0.04 0.01,-12.33 -0.07,-24.66 0.04,-36.99 z" />
  <path
     style="fill:#fff"
     id="path5699"
     d="m 84.1,144.18 c 2.3,-0.2 4.61,-0.38 6.93,-0.4 301.64,0 603.29,0 904.94,0 2.22,0.02 4.44,0.16 6.68,0.31 -29.95,5.78 -59.73,12.4 -89.62,18.51 -117.7,24.58 -235.4,49.14 -353.1,73.73 -2.91,0.5 -5.86,1.69 -8.83,0.97 C 399.02,206.85 246.93,176.47 94.85,146.03 91.29,145.26 87.7,144.67 84.1,144.18 Z" />
  <path
     style="fill:#fff"
     id="path5701"
     d="m 727.14,213.38 c 90.76,-18.57 181.51,-37.2 272.29,-55.72 -11.5,12.03 -23.09,23.98 -34.61,35.99 -2.48,2.62 -5.18,5.05 -7.31,7.98 -72.45,8.14 -144.94,15.92 -217.4,23.93 -52.15,5.62 -104.26,11.6 -156.42,17.02 47.88,-9.42 95.62,-19.53 143.45,-29.2 z" />
  <path
     style="fill:#fff"
     id="path5703"
     d="m 570.75,253.11 c 124.57,-11.07 249.09,-22.67 373.65,-33.8 -48,51.58 -96.39,102.81 -144.47,154.33 -70.27,-36.99 -140.55,-74 -210.82,-110.99 -6.13,-3.16 -12.15,-6.55 -18.36,-9.54 z" />
</svg>
