<?xml version="1.0" encoding="UTF-8" standalone="no"?>
<svg
   xmlns:dc="http://purl.org/dc/elements/1.1/"
   xmlns:cc="http://creativecommons.org/ns#"
   xmlns:rdf="http://www.w3.org/1999/02/22-rdf-syntax-ns#"
   xmlns:svg="http://www.w3.org/2000/svg"
   xmlns="http://www.w3.org/2000/svg"
   id="svg2"
   version="1.1"
   viewBox="0 0 1032.0455 408.75054"
   height="408.75055pt"
   width="1032.0455pt">
  <metadata
     id="metadata48">
    <rdf:RDF>
      <cc:Work
         rdf:about="">
        <dc:format>image/svg+xml</dc:format>
        <dc:type
           rdf:resource="http://purl.org/dc/dcmitype/StillImage" />
        <dc:title></dc:title>
      </cc:Work>
    </rdf:RDF>
  </metadata>
  <defs
     id="defs46" />
  <path
     style="fill:none"
     id="path4"
     d="m -5.7855761,-172.45577 1023.9998761,0 0,768.00001 -1023.9998761,0 0,-768.00001 z" />
  <path
     style="fill:#185a8c"
     id="path6"
     d="m 124.93442,23.654236 c 19.46,0.06 38.91,0.15 58.37,0.22 0.03,1.71 0.04,3.41 0.05,5.12 -19.51,-0.09 -39.03,-0.1 -58.54,-0.27 0.02,-1.7 0.06,-3.39 0.12,-5.07 z" />
  <path
     style="fill:#185a8c"
     id="path8"
     d="m 41.104425,38.584236 c 9.33,-0.99 18.73,-0.62 28.1,-0.63 7.85,0.25 16.6,0.36 22.89,5.74 5.979999,5.48 6.509999,14.2 6.639999,21.78 -2.19,0.01 -4.37,0.02 -6.559999,0.02 -0.52,-5.99 -0.42,-13.15 -5.63,-17.24 -5.08,-3.38 -11.5,-2.75 -17.3,-3.03 -8.69,0.02 -17.39,-0.22 -26.07,0.3 -4.33,0.27 -9.22,1.42 -11.67,5.36 -2.74,4.78 -2.78,10.48 -3.1,15.84 -0.18,11.11 -0.22,22.23 0.05,33.340004 0.39,5.35 0.43,11.15 3.49,15.78 3.32,4.37 9.29,4.69 14.31,4.89 9.64,0.23 19.3,0.3 28.95,-0.07 4.92,-0.29 10.8,-0.87 13.78,-5.37 3.17,-4.91 2.71,-10.99 3.18,-16.560004 2.189999,0.02 4.369999,0.04 6.549999,0.1 -0.15,7.910004 -0.42,16.890004 -6.209999,22.990004 -5.84,5.7 -14.53,6.05 -22.21,6.29 -9.72,0.04 -19.47,0.39 -29.15,-0.59 -4.71,-0.79 -9.65,-2.31 -12.99,-5.91 -3.41,-3.43 -4.72,-8.33 -5.53,-12.96 -1.47,-10.290004 -0.93,-20.720004 -1.04,-31.080004 0.23,-9.71 -0.43,-19.96 3.68,-29.02 2.84,-6.1 9.51,-9.09 15.84,-9.97 z" />
  <path
     style="fill:#185a8c"
     id="path10"
     d="m 137.54442,38.064236 c 11.2,-0.18 22.44,-0.42 33.63,0.24 6.9,0.4 14.57,2.84 18.2,9.2 3.28,6.11 3.75,13.23 4.07,20.03 0.26,10.64 0.28,21.3 -0.04,31.94 -0.37,6.720004 -0.89,13.830004 -4.41,19.750004 -3.17,5.05 -9.08,7.36 -14.72,8.28 -10.32,1.09 -20.7,0.53 -31.05,0.68 -7.85,-0.22 -16.33,0.06 -23.17,-4.42 -5.92,-3.98 -7.68,-11.44 -8.4,-18.1 -0.93,-10.020004 -0.55,-20.100004 -0.6,-30.140004 0.21,-9.6 -0.35,-19.94 4.53,-28.58 4.64,-7.26 14.01,-8.76 21.96,-8.88 z" />
  <path
     style="fill:#185a8c"
     id="path12"
     d="m 494.32442,40.784236 c 5.91,-2.77 12.55,-2.62 18.93,-2.86 9.03,0.05 18.1,-0.31 27.1,0.66 5.65,0.84 11.71,2.9 15.02,7.88 3.79,5.55 4.08,12.54 4.22,19.03 -2.22,-0.01 -4.42,-0.02 -6.62,-0.06 -0.44,-5.11 -0.23,-10.85 -3.56,-15.09 -2.73,-3.88 -7.85,-4.64 -12.24,-4.89 -10.31,-0.38 -20.63,-0.36 -30.94,-0.05 -4.75,0.17 -10.27,0.74 -13.39,4.79 -3.05,4.49 -3.17,10.16 -3.53,15.38 -0.19,11.33 -0.18,22.66 -0.01,33.99 0.33,5.300004 0.42,10.940004 3.11,15.690004 2.08,3.36 6.09,4.73 9.84,5.14 8.28,0.76 16.62,0.41 24.94,0.5 5.63,-0.14 11.39,0.13 16.86,-1.45 3.11,-0.87 5.72,-3.22 6.93,-6.21 1.9,-4.58 1.6,-9.64 2.09,-14.480004 2.13,0 4.26,-0.01 6.4,-0.01 0.09,8.100004 -0.38,17.420004 -6.5,23.470004 -7.01,6.22 -17.02,5.69 -25.79,5.97 -9.64,-0.26 -19.49,0.73 -28.96,-1.48 -5.47,-1.32 -10.58,-4.94 -12.61,-10.33 -3.73,-9.48 -2.93,-19.910004 -3.17,-29.880004 0.19,-10.73 -0.6,-21.61 1.67,-32.17 1.19,-5.72 4.6,-11.3 10.21,-13.54 z" />
  <path
     style="fill:#185a8c"
     id="path14"
     d="m 208.67442,39.804236 c 15.51,-0.1 31.03,-0.03 46.55,-0.04 7.71,0.33 16.2,0.11 22.63,5.08 6.21,4.89 7.1,13.44 7.65,20.76 0.45,11.62 0.45,23.28 0,34.900004 -0.55,7.31 -1.44,15.84 -7.63,20.73 -6.43,4.98 -14.94,4.77 -22.65,5.09 -15.52,-0.01 -31.05,0.07 -46.56,-0.05 -0.09,-28.820004 -0.12,-57.650004 0.01,-86.470004 z" />
  <path
     style="fill:#185a8c"
     id="path16"
     d="m 300.98442,39.724236 c 2.12,0.02 4.24,0.03 6.36,0.03 0.28,28.85 0.26,57.72 0,86.580004 -2.11,0 -4.22,0.02 -6.33,0.06 -0.54,-26.600004 -0.05,-53.220004 -0.24,-79.830004 -0.04,-2.28 0.03,-4.57 0.21,-6.84 z" />
  <path
     style="fill:#185a8c"
     id="path18"
     d="m 322.50442,39.804236 c 23.92,-0.1 47.83,-0.02 71.74,-0.04 0.01,2.42 0.01,4.85 0.01,7.28 -10.84,0.01 -21.68,-0.01 -32.51,0.01 -0.06,26.4 0.07,52.8 -0.06,79.210004 -2.19,0.05 -4.37,0.07 -6.55,0.09 -0.25,-26.430004 -0.01,-52.870004 -0.12,-79.310004 -10.79,0.01 -21.59,0 -32.38,0 -0.16,-2.41 -0.2,-4.83 -0.13,-7.24 z" />
  <path
     style="fill:#185a8c"
     id="path20"
     d="m 409.24442,39.774236 c 21.2,-0.01 42.4,-0.06 63.6,0.03 -0.1,2.34 0.55,4.91 -0.36,7.12 -18.83,0.3 -37.67,0.02 -56.51,0.13 -0.02,10.48 0,20.96 -0.01,31.44 18.09,0.03 36.19,-0.05 54.28,0.04 -0.01,2.39 -0.02,4.79 -0.05,7.18 -18.07,0.09 -36.14,0.02 -54.22,0.04 -0.02,11.1 -0.02,22.190004 0,33.290004 18.83,0.11 37.67,-0.2 56.49,0.15 0.98,2.13 0.25,4.76 0.38,7.09 -21.21,0.09 -42.42,0.06 -63.62,0.02 -0.03,-28.840004 -0.09,-57.690004 0.02,-86.530004 z" />
  <path
     style="fill:#185a8c"
     id="path22"
     d="m 574.63442,39.814236 c 2.2,-0.04 4.41,-0.06 6.62,-0.07 0.05,12.91 0.03,25.83 0.01,38.74 20.36,0.02 40.73,0.01 61.09,0.01 0.02,-12.91 -0.04,-25.81 0.03,-38.71 2.22,-0.02 4.45,-0.02 6.68,0 0.05,28.84 0.05,57.68 0,86.530004 -2.23,0.01 -4.46,0.01 -6.68,0 -0.08,-13.52 0,-27.040004 -0.04,-40.550004 -20.35,-0.02 -40.71,0 -61.06,-0.01 -0.02,13.53 0.04,27.060004 -0.03,40.590004 -2.21,-0.01 -4.42,-0.03 -6.63,-0.07 -0.08,-28.820004 -0.09,-57.640004 0.01,-86.460004 z" />
  <path
     style="fill:#185a8c"
     id="path24"
     d="m 664.13442,39.754236 c 23.88,0.04 47.76,-0.06 71.64,0.05 -0.11,2.32 0.59,4.91 -0.35,7.06 -10.69,0.44 -21.43,0.05 -32.13,0.18 -0.03,26.43 0.04,52.87 -0.04,79.300004 -2.21,-0.01 -4.42,-0.03 -6.61,-0.06 -0.14,-26.410004 -0.01,-52.820004 -0.07,-79.240004 -10.8,0.02 -21.6,-0.05 -32.4,0.04 -0.1,-2.44 -0.11,-4.89 -0.04,-7.33 z" />
  <path
     style="fill:#185a8c"
     id="path26"
     d="m 748.18442,39.744236 c 2.2,0.01 4.41,0.02 6.62,0.06 0.16,16.59 0,33.18 0.08,49.77 0.27,7.96 -0.5,16.270004 2.33,23.870004 1.55,4.54 6.47,6.59 10.91,6.97 9.34,0.77 18.72,0.41 28.08,0.45 5.32,-0.28 11.08,0.21 15.91,-2.47 3.81,-2.17 5.09,-6.72 5.72,-10.77 1.03,-7.650004 0.69,-15.390004 0.8,-23.090004 0.03,-14.91 -0.11,-29.82 0.02,-44.72 2.2,-0.04 4.4,-0.06 6.62,-0.07 0.12,16.94 0.07,33.87 0.03,50.81 -0.15,8.92 0.12,18.260004 -3.49,26.620004 -2.34,5.54 -7.99,8.7 -13.63,9.91 -9.24,1.6 -18.67,0.94 -28,1.1 -6.44,-0.25 -13.13,0.05 -19.19,-2.48 -4.56,-1.61 -8.28,-5.33 -9.9,-9.88 -2.57,-6.74 -2.74,-14.08 -2.89,-21.210004 -0.07,-18.29 -0.05,-36.58 -0.02,-54.87 z" />
  <path
     style="fill:#185a8c"
     id="path28"
     d="m 840.34442,39.784236 c 16.33,0.06 32.67,-0.27 48.99,0.18 6.81,0.41 14.22,0.35 20.11,4.32 3.76,2.56 4.92,7.35 5.19,11.63 0.28,6.58 0.46,13.22 -0.61,19.74 -0.6,3.17 -1.65,6.44 -3.98,8.77 -1.75,1.94 -4.42,2.42 -6.68,3.49 -0.61,2 2,1.85 3.19,2.63 4.79,1.73 6.21,7.35 6.59,11.910004 0.49,7.95 0.39,15.94 0.17,23.9 -2.09,-0.27 -4.68,0.59 -6.44,-0.53 -0.49,-8.42 0.38,-16.9 -0.54,-25.29 -0.3,-3.530004 -2.6,-7.020004 -6.21,-7.800004 -6.81,-1.76 -13.93,-1.28 -20.9,-1.44 -10.72,0.02 -21.44,-0.01 -32.16,0.01 -0.05,11.670004 0.04,23.340004 -0.04,35.000004 -2.24,0.02 -4.46,0.02 -6.68,0.01 -0.05,-28.840004 -0.05,-57.680004 0,-86.530004 z" />
  <path
     style="fill:#185a8c"
     id="path30"
     d="m 929.96442,39.744236 c 21.11,0.03 42.22,0.02 63.34,0 0.19,2.45 0.15,4.92 -0.04,7.37 -18.92,-0.15 -37.84,-0.04 -56.75,-0.06 0,10.48 0.01,20.96 -0.01,31.44 18.08,0 36.16,-0.01 54.23,0.01 0,2.37 0.01,4.75 0.05,7.12 -18.09,0.31 -36.18,0.05 -54.27,0.13 0,11.1 -0.01,22.200004 0,33.300004 18.91,-0.06 37.83,0.09 56.74,-0.08 0.21,2.45 0.24,4.91 0.04,7.37 -21.11,-0.02 -42.22,-0.03 -63.34,0 -0.38,-20.59 -0.05,-41.200004 -0.16,-61.800004 0.1,-8.27 -0.21,-16.54 0.17,-24.8 z" />
  <path
     style="fill:#fefefe"
     id="path32"
     d="m 130.42442,45.744236 c 11.58,-0.97 23.22,-0.42 34.82,-0.5 5.98,0.33 13.23,-0.36 17.63,4.56 3.27,4.28 3.42,9.96 3.81,15.12 0.35,11.16 0.27,22.33 0.11,33.5 -0.33,5.840004 -0.22,12.180004 -3.46,17.300004 -3.74,4.97 -10.6,4.83 -16.2,5.07 -11.65,0.08 -23.31,0.36 -34.95,-0.26 -4.51,-0.29 -9.7,-1.79 -11.74,-6.24 -2.99,-6.82 -2.43,-14.490004 -2.68,-21.760004 -0.03,-9.31 -0.14,-18.61 0.18,-27.91 0.31,-4.8 0.59,-9.91 3.21,-14.1 2.09,-3.04 5.77,-4.32 9.27,-4.78 z" />
  <path
     style="fill:#fefefe"
     id="path34"
     d="m 215.32442,47.034236 c 14.73,0.09 29.46,-0.14 44.19,0.13 5.33,0.3 11.66,-0.01 15.58,4.29 3.28,4.26 3.43,9.94 3.81,15.08 0.32,10.95 0.3,21.9 0.02,32.85 -0.39,5.170004 -0.51,10.850004 -3.76,15.170004 -3.72,4.23 -9.85,4.08 -15.01,4.36 -14.94,0.31 -29.89,0.04 -44.84,0.14 -0.01,-24.010004 -0.03,-48.010004 0.01,-72.020004 z" />
  <path
     style="fill:#fefefe"
     id="path36"
     d="m 847.10442,47.024236 c 15.36,0.11 30.72,-0.14 46.08,0.16 3.97,0.22 8.34,0.2 11.73,2.61 2.88,2.32 3,6.35 3.16,9.74 0.02,5.3 0.33,10.64 -0.49,15.9 -0.46,2.78 -2.02,5.61 -4.78,6.66 -4.93,2.01 -10.39,1.66 -15.6,1.88 -13.38,0.09 -26.76,0.02 -40.14,0.04 0.01,-12.33 -0.07,-24.66 0.04,-36.99 z" />
  <path
     style="fill:#185a8c"
     id="path38"
     d="m 0.6001382,221.61138 c 2.3,-0.14119 -1.79,-220.3064144 0.5299999,-220.3205344 L 1030.4129,-2.4414065e-5 C 1035.2643,387.4806 1027.5386,385.54524 1029.7786,385.65114 c 0,0 -92.64418,-152.60534 -122.53418,-148.29202 -117.7,17.35215 -334.14286,58.47333 -588.98571,95.95674 -2.91,0.35297 239.16857,-31.09644 236.19857,-31.60472 -62.48,3.03052 142.53699,95.18619 -554.45728,99.51465 1.9257142,23.98301 1.2929953,-2.58727 0.6001382,-179.61441 z" />
  <path
     style="fill:#185a8c"
     id="path40"
     d="m 721.35442,220.12424 c 90.76,-18.57 181.51,-37.2 272.29,-55.72 -11.5,12.03 -23.09,23.98 -34.61,35.99 -2.48,2.62 -5.18,5.05 -7.31,7.98 -72.45,8.14 -144.94,15.92 -217.4,23.93 -52.15,5.62 -104.26,11.6 -156.42,17.02 47.88,-9.42 95.62,-19.53 143.45,-29.2 z" />
  <path
     style="fill:#185a8c"
     id="path42"
     d="m 976.39299,75.168516 c 124.56991,-11.07 -89.19571,-53.75572 35.36411,-64.88572 -47.99982,51.58 20.6387,304.867144 21.9301,394.787144 0,0 -1136.96448,4.40675 -1030.7773385,-2.41183 C -77.277279,404.06955 982.60299,78.158516 976.39299,75.168516 Z" />
</svg>
