<?xml version="1.0" encoding="UTF-8" standalone="no"?>
<svg
   xmlns:dc="http://purl.org/dc/elements/1.1/"
   xmlns:cc="http://creativecommons.org/ns#"
   xmlns:rdf="http://www.w3.org/1999/02/22-rdf-syntax-ns#"
   xmlns:svg="http://www.w3.org/2000/svg"
   xmlns="http://www.w3.org/2000/svg"
   id="svg2"
   version="1.1"
   viewBox="0 0 757.02856 347.42856"
   height="347.42856pt"
   width="757.02856pt">
  <metadata
     id="metadata34">
    <rdf:RDF>
      <cc:Work
         rdf:about="">
        <dc:format>image/svg+xml</dc:format>
        <dc:type
           rdf:resource="http://purl.org/dc/dcmitype/StillImage" />
        <dc:title></dc:title>
      </cc:Work>
    </rdf:RDF>
  </metadata>
  <defs
     id="defs32" />
  <path
     style="fill:none"
     id="path4"
     d="m 0,0 757.02857,0 0,347.42857 L 0,347.42857 0,0 Z" />
  <path
     style="fill:#fff"
     id="path6"
     d="m 43.38857,32.64857 c 11.43,-5.77 24.69,-3.99 37.05,-4.35 11.49,0.24 24.45,-0.97 34.14,6.44 7.59,6.41 8.17,17.09 8.54,26.28 -2.63,0.48 -5.34,0.57 -7.98,0.17 -1.14,-5.91 -0.31,-12.75 -4.36,-17.74 -2.66,-4.1 -7.81,-5.19 -12.33,-5.67 -12.64,-0.7 -25.32,-0.62 -37.96,-0.24 -5.89,0.21 -12.86,0.56 -16.76,5.67 -3.63,5.46 -3.69,12.31 -4.13,18.62 -0.24,12.99 -0.2,26 -0.01,38.99 0.41,6.51 0.39,13.43 3.66,19.28 2.59,4.18 7.65,5.73 12.29,6.12 11.28,0.81 22.6,0.5 33.89,0.47 6.84,-0.36 14.72,0.18 20.23,-4.65 5.34,-5.64 4.84,-14.07 5.09,-21.28 2.76,-0.45 5.56,-0.35 8.33,-0.06 -0.34,9.61 -0.59,20.64 -7.9,27.88 -7.17,6.64 -17.51,6.62 -26.67,7.12 -11.72,0.04 -23.47,0.42 -35.14,-0.86 -6.33,-1.26 -12.86,-3.92 -16.51,-9.55 -4.31,-7.01 -4.98,-15.49 -5.43,-23.51 -0.24,-14.33 -0.43,-28.69 0.2,-43.01 0.69,-9.58 2.59,-20.94 11.76,-26.12 z" />
  <path
     style="fill:#fff"
     id="path8"
     d="m 169.83857,28.40857 c 8.54,-0.26 17.08,-0.04 25.62,-0.12 8.24,0.12 16.77,-0.1 24.6,2.85 4.62,1.57 8.54,5.02 10.86,9.29 3.44,6.94 4.04,14.82 4.47,22.42 0.26,13.34 0.32,26.68 -0.08,40.01 -0.59,7.87 -1.28,16.25 -5.77,23 -3.69,5.29 -10,7.74 -16.08,8.98 -11.64,1.31 -23.36,0.82 -35.04,0.92 -6.37,0.1 -12.73,-0.33 -19.06,-0.94 -6.29,-1.27 -12.76,-3.94 -16.39,-9.53 -4.31,-6.98 -4.95,-15.43 -5.45,-23.43 -0.29,-11.69 -0.19,-23.39 -0.11,-35.09 0.19,-7.94 0.51,-16.11 3.37,-23.61 1.93,-5.52 6.47,-10.08 11.99,-11.99 5.43,-2.13 11.31,-2.53 17.07,-2.76 z" />
  <path
     style="fill:#fff"
     id="path10"
     d="m 568.54857,30.12857 c 11.07,-2.7 22.6,-1.57 33.89,-1.84 10.53,0.2 22.36,-0.34 31.05,6.65 7.32,6.54 8.43,17.29 7.96,26.52 -2.67,-0.07 -5.34,-0.12 -8.01,-0.19 -0.2,-6.59 -0.2,-14.2 -5.16,-19.22 -2.37,-2.79 -6.22,-3.46 -9.63,-4.12 -11.69,-0.96 -23.43,-0.6 -35.13,-0.56 -5.93,0.4 -12.33,-0.17 -17.69,2.84 -4.83,2.74 -6.26,8.59 -6.9,13.69 -1.07,9.27 -0.64,18.62 -0.78,27.93 0.15,9.82 -0.31,19.7 0.99,29.46 0.71,4.15 1.74,8.82 5.26,11.53 2.74,2.34 6.45,3.02 9.93,3.41 11.03,0.8 22.09,0.48 33.14,0.48 6.92,-0.36 14.75,0.23 20.54,-4.33 5.74,-5.63 5.18,-14.43 5.47,-21.84 2.74,-0.06 5.48,-0.07 8.22,-0.03 -0.17,9.62 -0.49,20.63 -7.7,27.93 -7.33,6.96 -18.06,6.75 -27.49,7.28 -11.71,-0.02 -23.46,0.45 -35.1,-1 -5.77,-1.31 -11.7,-3.65 -15.27,-8.63 -4.52,-6.46 -5.35,-14.64 -5.9,-22.29 -0.47,-10.97 -0.36,-21.97 -0.28,-32.95 0.18,-9.72 0.06,-19.83 3.93,-28.94 2.48,-6.13 8.33,-10.31 14.66,-11.78 z" />
  <path
     style="fill:#fff"
     id="path12"
     d="m 253.14857,30.50857 c 5.33,-0.02 10.67,-0.09 16.01,0.05 23.83,31.05 47.75,62.04 71.64,93.04 -0.03,-30.94 0.08,-61.89 -0.05,-92.83 2.77,-0.43 5.59,-0.44 8.37,0 -0.18,34.24 0.06,68.48 -0.12,102.72 -3.97,-0.16 -8.25,0.64 -12.03,-0.33 -25.35,-31.45 -50.31,-63.24 -75.57,-94.78 -0.11,31.72 0.03,63.44 -0.07,95.15 -2.66,0.01 -5.32,0.03 -7.98,0.07 -0.57,-15.55 -0.08,-31.14 -0.24,-46.71 0.02,-18.79 -0.06,-37.58 0.04,-56.38 z" />
  <path
     style="fill:#fff"
     id="path14"
     d="m 366.52857,30.58857 c 26.64,-0.25 53.28,0 79.91,-0.13 1.87,-0.03 3.75,0.05 5.62,0.3 -0.07,2.85 -0.11,5.69 -0.07,8.54 -12.84,0.45 -25.72,0.06 -38.57,0.2 -0.01,31.35 0.07,62.69 -0.04,94.04 -2.69,0.01 -5.36,0.02 -8.03,0.05 -0.48,-31.35 -0.05,-62.73 -0.22,-94.1 -12.85,-0.01 -25.71,0.05 -38.57,-0.03 -0.03,-2.96 -0.05,-5.92 -0.03,-8.87 z" />
  <path
     style="fill:#fff"
     id="path16"
     d="m 465.22857,69.68857 c 5.75,-13.07 11,-26.37 17.07,-39.28 3.97,0.17 7.96,-0.06 11.93,0.23 14.57,34.34 29.44,68.56 44.04,102.89 -3.18,0.04 -6.34,0.04 -9.51,0 -3.35,-7.96 -6.46,-16.01 -9.69,-24.01 -20.65,-0.06 -41.3,-0.01 -61.95,-0.02 -3.32,7.99 -6.33,16.12 -9.78,24.07 -3.16,0.01 -6.31,0.07 -9.45,-0.2 9.15,-21.21 18.22,-42.46 27.34,-63.68 z" />
  <path
     style="fill:#fff"
     id="path18"
     d="m 656.30857,39.53857 c -0.53,-3 -0.39,-6.06 -0.15,-9.08 28.43,0.08 56.86,-0.02 85.29,0.05 0.01,2.99 -0.01,5.98 -0.01,8.98 -12.86,0.02 -25.72,0 -38.58,0.01 -0.04,28.1 0,56.2 -0.02,84.31 -0.01,3.26 0.16,6.54 -0.25,9.8 -2.66,-0.05 -5.32,-0.07 -7.96,-0.09 -0.11,-31.34 0,-62.68 -0.06,-94.02 -12.75,0.02 -25.51,-0.06 -38.26,0.04 z" />
  <path
     style="fill:#f46c6c"
     id="path20"
     d="m 170.79857,37.36857 c 10.5,-0.11 21,-0.12 31.49,0.01 5.9,0.41 12.34,-0.19 17.61,2.99 4.32,2.57 5.76,7.77 6.48,12.43 1.45,11.61 0.86,23.34 1,35.01 -0.21,9.33 0.38,18.88 -2,27.99 -1.1,4.65 -4.79,8.58 -9.52,9.58 -6.02,1.46 -12.29,1.15 -18.43,1.37 -12.17,-0.15 -24.37,0.41 -36.52,-0.61 -4.66,-0.45 -9.69,-2.35 -11.95,-6.74 -3.09,-6.36 -3,-13.62 -3.31,-20.53 -0.17,-12.48 -0.23,-24.96 0.08,-37.44 0.47,-6.36 0.49,-13.4 4.51,-18.72 5.15,-5.77 13.57,-4.86 20.56,-5.34 z" />
  <path
     style="fill:#f46c6c"
     id="path22"
     d="m 488.03857,36.36857 c 9.08,21.33 17.95,42.76 27,64.11 -17.96,0.02 -35.92,0.01 -53.89,0 8.92,-21.39 17.98,-42.72 26.89,-64.11 z" />
  <path
     style="fill:#fff"
     id="path24"
     d="m 19.79857,157.20857 c 5.17,-0.65 10.38,-0.39 15.57,-0.42 233.35,-0.01 466.7,-0.01 700.05,-0.01 3.46,-0.02 6.91,-0.02 10.37,0.11 -117.78,24.69 -235.61,49.2 -353.4,73.84 -2.71,0.59 -5.37,-0.44 -8.01,-0.88 -116.14,-23.25 -232.28,-46.46 -348.42,-69.69 -5.38,-1.04 -10.71,-2.3 -16.16,-2.95 z" />
  <path
     style="fill:#fff"
     id="path26"
     d="m 416.68857,234.55857 c 109.03,-22.1 217.99,-44.59 327,-66.86 -11.04,11.71 -22.49,23.03 -33.33,34.92 -95.02,10.43 -190.05,20.84 -285.07,31.26 -2.86,0.32 -5.72,0.71 -8.6,0.68 z" />
  <path
     style="fill:#fff"
     id="path28"
     d="m 404.35857,243.23857 c 98.62,-8.67 197.19,-17.95 295.8,-26.7 -38.03,40.77 -76.33,81.3 -114.31,122.12 -60.52,-31.76 -120.9,-63.8 -181.49,-95.42 z" />
</svg>
