<?xml version="1.0" encoding="UTF-8" ?>
<!DOCTYPE svg PUBLIC "-//W3C//DTD SVG 1.1//EN" "http://www.w3.org/Graphics/SVG/1.1/DTD/svg11.dtd">
<svg width="152pt" height="152pt" viewBox="0 0 152 152" version="1.1" xmlns="http://www.w3.org/2000/svg">
<path fill="transparent" d=" M 0.00 0.00 L 152.00 0.00 L 152.00 152.00 L 0.00 152.00 L 0.00 0.00 Z" />
<path fill="#fb0e0e" d=" M 48.63 18.81 C 62.57 11.15 79.51 9.13 94.84 13.44 C 104.28 15.71 112.67 20.93 120.31 26.76 C 133.93 39.71 142.22 58.56 140.75 77.50 C 140.11 92.70 132.81 106.72 123.23 118.19 C 125.23 98.18 118.89 77.55 106.46 61.79 C 102.20 56.60 97.24 52.10 92.20 47.70 C 76.80 35.91 56.93 29.44 37.54 31.27 C 35.16 30.98 32.81 31.63 30.52 32.20 C 36.50 27.71 41.80 22.12 48.63 18.81 Z" />
<path fill="#0563f2" d=" M 23.34 42.51 C 24.91 39.79 27.08 37.50 28.70 34.82 C 27.06 58.53 36.42 82.86 53.99 98.95 C 58.67 103.75 64.29 107.50 69.96 111.04 C 74.95 113.70 80.29 115.61 85.50 117.80 C 96.22 120.68 107.43 122.09 118.48 120.77 C 118.97 120.54 119.97 120.08 120.47 119.84 C 109.16 132.56 92.50 140.08 75.50 140.34 C 52.31 141.47 29.44 127.87 18.79 107.32 C 8.22 87.12 9.50 60.86 23.34 42.51 Z" />
</svg>
