<?xml version="1.0" encoding="UTF-8" standalone="no"?>
<svg
   xmlns:dc="http://purl.org/dc/elements/1.1/"
   xmlns:cc="http://creativecommons.org/ns#"
   xmlns:rdf="http://www.w3.org/1999/02/22-rdf-syntax-ns#"
   xmlns:svg="http://www.w3.org/2000/svg"
   xmlns="http://www.w3.org/2000/svg"
   id="svg2"
   version="1.1"
   viewBox="0 0 943.54291 398.62857"
   height="398.62857pt"
   width="943.54291pt">
  <metadata
     id="metadata44">
    <rdf:RDF>
      <cc:Work
         rdf:about="">
        <dc:format>image/svg+xml</dc:format>
        <dc:type
           rdf:resource="http://purl.org/dc/dcmitype/StillImage" />
        <dc:title></dc:title>
      </cc:Work>
    </rdf:RDF>
  </metadata>
  <defs
     id="defs42" />
  <path
     style="fill:none"
     id="path4"
     d="m 0,0 943.54289,0 0,398.62857 L 0,398.62857 0,0 Z" />
  <path
     style="fill:#fff"
     id="path6"
     d="m 180.02429,31.22857 c 5.49,-0.38 10.98,-0.93 16.5,-0.83 12.37,0.13 24.79,-0.46 37.11,1 6.26,1.3 12.64,4.11 16.15,9.73 4.11,7 4.78,15.33 5.24,23.26 0.38,13 0.37,26.02 0.02,39.03 -0.44,7.97 -1.07,16.33 -5.09,23.43 -3.5,5.84 -10.09,8.84 -16.59,9.91 -10.21,1.59 -20.58,0.95 -30.88,1.08 -9.19,-0.07 -18.58,0.4 -27.53,-2.01 -5.65,-1.47 -10.81,-5.14 -13.44,-10.43 -3.58,-7.4 -4.06,-15.79 -4.36,-23.87 -0.22,-12.37 -0.27,-24.74 0.07,-37.11 0.43,-7.89 1.1,-16.16 5.16,-23.14 3.77,-6.07 10.82,-9.05 17.64,-10.05 z" />
  <path
     style="fill:#fff"
     id="path8"
     d="m 585.07429,31.25857 c 13.12,-1.34 26.31,-0.72 39.47,-0.85 8.89,0.43 18.63,0.22 26.08,5.87 5.09,3.78 7.3,10.04 8.44,16.04 1.99,11.59 1.37,23.41 1.51,35.11 -0.19,11.35 0.48,23.02 -2.93,34 -1.67,5.88 -5.99,11.06 -11.76,13.24 -8.34,3.4 -17.57,3.06 -26.41,3.18 -11.33,-0.21 -22.72,0.58 -33.99,-0.9 -6.83,-0.88 -13.86,-3.79 -17.68,-9.8 -4.06,-6.79 -4.77,-14.9 -5.25,-22.62 -0.33,-13.04 -0.29,-26.08 -0.06,-39.12 0.38,-8.13 0.98,-16.66 5.06,-23.9 3.66,-6.16 10.72,-9.18 17.52,-10.25 z" />
  <path
     style="fill:#fff"
     id="path10"
     d="m 810.10429,31.26857 c 13.09,-1.35 26.27,-0.73 39.41,-0.86 8.91,0.42 18.65,0.18 26.17,5.77 7.12,5.37 8.67,14.83 9.48,23.14 0.81,11.67 0.58,23.38 0.53,35.07 -0.19,10.34 0,21.17 -4.35,30.79 -2.92,6.2 -9.26,9.94 -15.78,11.25 -10.55,2.02 -21.34,1.26 -32.01,1.41 -9.48,-0.09 -19.2,0.49 -28.42,-2.11 -6.13,-1.61 -11.6,-5.98 -13.88,-11.98 -3.52,-8.63 -3.53,-18.16 -3.73,-27.34 -0.03,-11 -0.19,-22.01 0.22,-33 0.49,-7.68 1.23,-15.74 5.33,-22.45 3.73,-5.78 10.48,-8.59 17.03,-9.69 z" />
  <path
     style="fill:#fff"
     id="path12"
     d="m 60.494286,32.58857 c 19.03,0.02 38.06,-0.05 57.090004,0.04 7.26,0.52 15.14,0.06 21.54,4.1 4.99,3.05 6.33,9.32 6.59,14.74 0.29,7.65 0.36,15.33 -0.14,22.97 -0.4,5.54 -2.32,11.66 -7.39,14.65 -7.99,4.81 -17.65,4.6 -26.66,4.97 -14.270004,0.09 -28.540004,0.01 -42.810004,0.03 -0.03,13.85 0.01,27.7 -0.02,41.55 -2.73,0.01 -5.47,0.01 -8.2,0 0,-34.35 -0.01,-68.7 0,-103.05 z" />
  <path
     style="fill:#fff"
     id="path14"
     d="m 272.82429,32.62857 c 18.23,-0.05 36.47,-0.1 54.71,0.02 9.24,0.65 19.4,-0.07 27.45,5.33 5.84,4.1 6.33,11.93 6.41,18.43 -0.05,9.05 0.74,18.84 -3.75,27.07 -2.03,3.83 -6.24,5.17 -9.95,6.74 -0.01,1.98 2.27,1.73 3.5,2.46 5.28,1.71 7.45,7.56 8.05,12.6 1.04,10.08 0.43,20.24 0.58,30.36 -2.75,0.02 -5.49,0.02 -8.23,-0.07 -0.08,-9.42 0.18,-18.84 -0.19,-28.25 -0.22,-4.28 -1.64,-9.32 -6.04,-11 -5.37,-2.06 -11.26,-1.95 -16.92,-2.14 -15.8,-0.19 -31.61,-0.04 -47.41,-0.08 0.02,13.79 -0.06,27.58 0.04,41.37 -2.76,0.25 -5.54,0.24 -8.3,0.03 0.06,-34.29 -0.04,-68.58 0.05,-102.87 z" />
  <path
     style="fill:#fff"
     id="path16"
     d="m 375.75429,32.61857 c 28.46,-0.05 56.91,-0.07 85.37,0.01 0.04,2.94 0.04,5.89 0.07,8.83 -12.88,0.29 -25.77,0.05 -38.66,0.12 0.04,31.36 0.01,62.71 0.02,94.07 -2.74,0 -5.47,0 -8.2,-0.01 -0.01,-31.35 0,-62.7 0,-94.05 -12.88,-0.06 -25.76,0.11 -38.64,-0.09 0,-2.96 0,-5.92 0.04,-8.88 z" />
  <path
     style="fill:#fff"
     id="path18"
     d="m 478.68429,32.60857 c 24.18,-0.02 48.35,-0.08 72.53,0.03 0.02,2.96 0.02,5.91 0.02,8.87 -21.44,0.19 -42.89,0.02 -64.34,0.08 0,12.29 0.02,24.58 -0.01,36.87 20.37,0.21 40.75,-0.1 61.13,0.16 0.02,2.97 0.02,5.95 -0.07,8.93 -20.36,-0.06 -40.71,-0.01 -61.06,-0.03 0.01,16.04 0.02,32.07 0,48.11 -2.75,0.04 -5.49,0.03 -8.23,-0.11 0.03,-34.3 -0.04,-68.6 0.03,-102.91 z" />
  <path
     style="fill:#fff"
     id="path20"
     d="m 678.21429,32.58857 c 2.69,-0.01 5.39,0 8.1,0.03 0.08,31.34 0,62.68 0.04,94.03 20.36,0.03 40.72,-0.03 61.09,0.03 0.02,2.97 0.02,5.94 0.01,8.91 -23.11,0.11 -46.23,0.07 -69.34,0.02 0.05,-34.34 -0.16,-68.69 0.1,-103.02 z" />
  <path
     style="fill:#fff"
     id="path22"
     d="m 761.75429,32.61857 c 2.73,-0.05 5.46,-0.06 8.19,0.07 0,34.17 0.11,68.35 -0.05,102.52 -2.41,1.07 -5.52,0.21 -8.17,0.29 0.03,-34.29 -0.04,-68.58 0.03,-102.88 z" />
  <path
     style="fill:#f46c6c"
     id="path24"
     d="m 179.05429,40.22857 c 14.1,-1.51 28.32,-0.48 42.48,-0.77 7.2,0.39 16.13,-0.48 21.17,5.82 3.89,5.93 3.8,13.37 4.19,20.2 0.16,14.29 0.44,28.61 -0.29,42.9 -0.53,6.37 -1.33,14.21 -7.51,17.72 -5.73,2.95 -12.41,2.39 -18.65,2.72 -12.28,-0.05 -24.57,0.29 -36.85,-0.3 -5.19,-0.25 -11.11,-1.32 -14.29,-5.89 -3.32,-5.43 -3.48,-12.03 -3.86,-18.19 -0.31,-13.33 -0.27,-26.67 -0.06,-40 0.31,-6.01 0.47,-12.33 3.28,-17.8 2.04,-3.8 6.25,-5.85 10.39,-6.41 z" />
  <path
     style="fill:#f46c6c"
     id="path26"
     d="m 584.07429,40.27857 c 8.41,-1.23 16.94,-0.71 25.42,-0.83 9.28,0.12 18.59,-0.37 27.84,0.59 4.37,0.46 8.95,2.25 11.31,6.18 2.91,5.25 3.11,11.4 3.49,17.25 0.31,9.3 0.26,18.61 0.23,27.92 -0.09,7.73 0.05,15.5 -1.17,23.16 -0.81,4.53 -2.62,9.44 -6.98,11.65 -5.79,2.87 -12.46,2.3 -18.72,2.62 -12.34,-0.06 -24.68,0.3 -37,-0.32 -5.1,-0.29 -10.89,-1.45 -13.96,-5.97 -3.25,-5.44 -3.38,-11.98 -3.8,-18.11 -0.33,-12.68 -0.21,-25.36 -0.11,-38.03 0.3,-6.37 0.28,-13.04 2.96,-18.96 1.79,-4.16 6.17,-6.53 10.49,-7.15 z" />
  <path
     style="fill:#f46c6c"
     id="path28"
     d="m 809.99429,40.14857 c 12.11,-1.3 24.33,-0.45 36.5,-0.71 7.09,0.14 14.44,-0.39 21.28,1.85 4.82,1.66 7.49,6.49 8.36,11.25 1.87,10.17 1.22,20.57 1.36,30.86 -0.13,10.34 0.46,20.76 -1.11,31.02 -0.79,4.36 -2.38,9.1 -6.45,11.44 -5.57,3.18 -12.27,2.61 -18.44,2.95 -12.33,-0.02 -24.66,0.28 -36.98,-0.26 -5.21,-0.24 -11.14,-1.16 -14.51,-5.59 -3.39,-5.14 -3.61,-11.53 -4.03,-17.47 -0.42,-12.33 -0.31,-24.67 -0.2,-37.01 0.28,-7.25 0.03,-14.91 3.25,-21.61 2.06,-4.1 6.6,-6.17 10.97,-6.72 z" />
  <path
     style="fill:#f46c6c"
     id="path30"
     d="m 68.704286,41.58857 c 16.93,0.07 33.870004,-0.16 50.800004,0.15 4.52,0.26 9.33,0.19 13.44,2.38 3.29,1.77 4.34,5.74 4.53,9.21 0.32,6.02 0.27,12.07 0.04,18.09 -0.2,4.03 -1.18,8.8 -5.02,10.93 -5.57,2.81 -12.03,2.4 -18.09,2.66 -15.220004,0.2 -30.450004,0.02 -45.680004,0.1 -0.04,-14.51 -0.01,-29.02 -0.02,-43.52 z" />
  <path
     style="fill:#f46c6c"
     id="path32"
     d="m 281.02429,41.58857 c 18.81,0.11 37.64,-0.26 56.45,0.25 5,0.37 11.43,0.53 14.12,5.56 2.27,5.36 1.4,11.36 1.61,17.02 -0.24,5.51 0.6,11.93 -3.28,16.43 -3.54,3.4 -8.83,3.57 -13.44,3.96 -18.47,0.59 -36.97,0.16 -55.45,0.29 -0.01,-14.5 0.01,-29.01 -0.01,-43.51 z" />
  <path
     style="fill:#fff"
     id="path34"
     d="m 15.104286,158.90857 c 4.11,-0.63 8.28,-0.53 12.42,-0.5 294.340004,0 588.680004,0 883.030004,0 7.43,0.13 14.89,-0.35 22.3,0.38 -36.52,7.13 -72.88,15.14 -109.33,22.62 -112.65,23.52 -225.3,47.03 -337.95,70.56 -1.34,0.28 -2.67,0.27 -3.99,-0.04 -149.37,-29.92 -298.75,-59.76 -448.130004,-89.65 -6.11,-1.17 -12.17,-2.61 -18.35,-3.37 z" />
  <path
     style="fill:#fff"
     id="path36"
     d="m 652.58429,229.04857 c 92.4,-18.89 184.78,-37.89 277.2,-56.71 -11,11.78 -22.33,23.24 -33.46,34.9 -2.75,2.99 -5.86,5.67 -8.24,8.99 -117.98,13.2 -236.02,25.91 -354.03,38.93 -6.54,0.61 -13.05,1.63 -19.62,1.97 46.12,-8.98 92.09,-18.79 138.15,-28.08 z" />
  <path
     style="fill:#fff"
     id="path38"
     d="m 501.33429,267.74857 c 124.52,-11.09 249,-22.68 373.52,-33.8 -47.93,51.63 -96.36,102.79 -144.4,154.31 -76.39,-40.14 -152.67,-80.49 -229.12,-120.51 z" />
</svg>
