<?xml version="1.0" encoding="UTF-8" standalone="no"?>
<svg
   xmlns:dc="http://purl.org/dc/elements/1.1/"
   xmlns:cc="http://creativecommons.org/ns#"
   xmlns:rdf="http://www.w3.org/1999/02/22-rdf-syntax-ns#"
   xmlns:svg="http://www.w3.org/2000/svg"
   xmlns="http://www.w3.org/2000/svg"
   id="svg2"
   version="1.1"
   viewBox="0 0 738.74286 329.14285"
   height="329.14285pt"
   width="738.74286pt">
  <metadata
     id="metadata34">
    <rdf:RDF>
      <cc:Work
         rdf:about="">
        <dc:format>image/svg+xml</dc:format>
        <dc:type
           rdf:resource="http://purl.org/dc/dcmitype/StillImage" />
        <dc:title></dc:title>
      </cc:Work>
    </rdf:RDF>
  </metadata>
  <defs
     id="defs32" />
  <path
     style="fill:none"
     id="path4"
     d="m 0,0 738.74285,0 0,329.14286 L 0,329.14286 0,0 Z" />
  <path
     style="fill:#fff"
     id="path6"
     d="m 37.31714,16.07 c 11.04,-0.94 22.16,-1.31 33.22,-0.49 7.02,0.36 14.55,1.63 20.01,6.41 5.41,4.92 6.31,12.76 6.21,19.66 -2.68,0.01 -5.36,-0.01 -8.04,-0.12 -0.48,-4.57 -0.53,-10.01 -4.33,-13.24 -3.11,-3.07 -7.74,-3.39 -11.85,-3.8 -12.02,-0.57 -24.11,-0.58 -36.09,0.69 -5.72,0.7 -12.06,2.8 -14.85,8.28 -2.51,6.19 -2.46,13.23 -1.01,19.67 1.21,5.12 6.3,7.95 11.13,8.82 12.43,2.34 25.15,0.56 37.68,1.74 7.37,0.34 15.42,1.23 21.22,6.27 5.01,4.63 6.04,11.8 6.17,18.28 0.18,7.99 0.22,16.77 -4.59,23.58 -4.67,6.67 -13.04,9.13 -20.7,10.3 -11.31,0.98 -22.7,0.96 -34.03,0.32 -7.33,-0.54 -15.5,-1.91 -20.71,-7.62 -4.59,-5.05 -5.07,-12.22 -5.38,-18.7 2.73,-0.04 5.46,-0.04 8.19,-0.03 0.55,4.45 0.5,9.69 4.02,13 3.02,3.23 7.68,3.72 11.84,4.1 11.04,0.46 22.12,0.67 33.15,-0.11 6.67,-0.64 14.32,-2.51 17.78,-8.88 2.93,-6.52 2.67,-14.04 1.4,-20.93 -0.87,-5.03 -5.32,-8.72 -10.21,-9.6 -12.59,-2.25 -25.43,-0.81 -38.12,-1.95 -7.62,-0.44 -15.89,-1.51 -21.95,-6.59 -5.33,-4.69 -5.98,-12.28 -6.05,-18.92 -0.07,-7.22 0.16,-15.27 5.07,-21.07 5.07,-6.12 13.29,-8.07 20.82,-9.07 z" />
  <path
     style="fill:#fff"
     id="path8"
     d="m 461.37714,16.09 c 11.63,-1.35 23.36,-0.89 35.05,-0.91 9.24,0.52 19.7,0.46 26.98,7.11 6.96,6.62 7.43,16.9 7.71,25.88 -2.74,0.05 -5.48,0.05 -8.21,0.04 -0.49,-6.35 -0.21,-13.65 -4.73,-18.72 -2.48,-3.28 -6.77,-4.18 -10.61,-4.72 -11.02,-1.03 -22.1,-0.48 -33.15,-0.61 -6.22,0.24 -12.78,-0.17 -18.57,2.48 -4.75,2.3 -6.64,7.67 -7.35,12.55 -1.38,9.62 -0.89,19.36 -1.02,29.04 0.13,10.27 -0.37,20.6 1.14,30.79 0.78,4.39 2.3,9.23 6.43,11.58 5.89,3.31 12.93,2.61 19.43,2.95 10.66,-0.07 21.35,0.34 31.99,-0.49 4.71,-0.47 10.02,-1.78 12.76,-6.03 3.77,-5.81 3.27,-13.07 3.66,-19.69 2.72,-0.03 5.45,-0.03 8.18,0.02 -0.22,8.76 -0.41,18.33 -5.8,25.7 -4.53,6.19 -12.5,8.32 -19.77,9.05 -10.32,0.79 -20.69,0.37 -31.04,0.45 -8.65,-0.36 -18.18,-0.48 -25.38,-5.96 -7.31,-5.73 -8.64,-15.65 -9.39,-24.3 -0.65,-13.33 -0.41,-26.68 -0.29,-40.01 0.23,-8.39 0.68,-17.12 4.42,-24.79 3.25,-6.72 10.52,-10.21 17.56,-11.41 z" />
  <path
     style="fill:#fff"
     id="path10"
     d="m 644.60714,21.41 c 7.34,-4.73 16.32,-5.53 24.83,-5.89 9.82,-0.68 19.69,-0.48 29.49,0.4 6.26,0.83 13,2.68 17.19,7.74 4.09,4.99 4.62,11.77 4.68,17.96 -2.7,0.04 -5.39,0.03 -8.08,-0.08 -0.48,-4.6 -0.54,-10.07 -4.39,-13.31 -3.14,-3.03 -7.77,-3.34 -11.88,-3.75 -12,-0.55 -24.06,-0.57 -36.01,0.7 -5.71,0.72 -12.05,2.79 -14.83,8.26 -2.54,6.2 -2.48,13.26 -1.02,19.71 1.22,5.13 6.33,7.95 11.18,8.81 12.42,2.32 25.12,0.55 37.64,1.74 7.58,0.35 16.02,1.27 21.76,6.8 5.55,5.73 5.61,14.24 5.69,21.71 0.12,8.54 -1.36,18.35 -8.7,23.81 -9.41,6.89 -21.65,6.61 -32.77,6.85 -10.01,-0.19 -20.34,0.46 -30,-2.62 -5.35,-1.67 -10.09,-5.61 -11.97,-10.99 -1.61,-4.18 -1.77,-8.72 -2.04,-13.14 2.73,-0.04 5.45,-0.04 8.19,-0.03 0.54,4.45 0.5,9.69 4.02,13.01 3.01,3.21 7.65,3.71 11.8,4.09 11.31,0.47 22.67,0.7 33.97,-0.18 6.42,-0.73 13.71,-2.68 17,-8.83 2.91,-6.49 2.67,-13.97 1.41,-20.83 -0.87,-5.35 -5.74,-9.05 -10.88,-9.83 -14.41,-2.19 -29.06,-0.48 -43.5,-2.31 -7.35,-1.03 -15.78,-3.44 -19.39,-10.6 -3.12,-6.66 -2.66,-14.3 -2.39,-21.46 0.25,-6.84 3.06,-13.93 9,-17.74 z" />
  <path
     style="fill:#fff"
     id="path12"
     d="m 114.41714,17.32 c 25.23,0.01 50.46,-0.05 75.7,0.02 0.04,2.98 0.04,5.95 0.04,8.93 -22.53,0.11 -45.06,0.01 -67.59,0.05 0.02,12.31 -0.02,24.62 0.02,36.93 21.44,0.05 42.89,-0.11 64.34,0.08 0.03,2.99 0.02,5.99 -0.08,8.99 -21.43,-0.15 -42.86,-0.04 -64.29,-0.06 0.03,13.04 0,26.07 0.02,39.11 22.51,0.04 45.02,-0.05 67.53,0.05 0.05,2.95 0.05,5.91 0.05,8.87 -25.26,0.22 -50.52,0.04 -75.78,0.09 0.02,-34.35 -0.06,-68.71 0.04,-103.06 z" />
  <path
     style="fill:#fff"
     id="path14"
     d="m 204.43714,17.32 c 21.98,0.29 44,-0.69 65.96,0.68 6.31,0.54 13.24,1.64 18,6.21 4.96,5.35 4.49,13.19 4.68,19.98 -0.1,8 0.27,16.59 -3.68,23.83 -2.06,3.77 -6.08,5.73 -10.14,6.53 0.22,2.91 4,2.37 5.83,3.9 4.96,3.52 5.83,10.09 6.19,15.71 0.42,8.73 0.11,17.47 0.2,26.21 -2.74,0.01 -5.49,0.01 -8.22,0.01 -0.11,-9.43 0.21,-18.87 -0.23,-28.29 -0.21,-4.14 -1.48,-8.98 -5.61,-10.84 -5.99,-2.47 -12.64,-2.12 -18.99,-2.36 -15.26,-0.13 -30.52,-0.02 -45.78,-0.06 -0.03,13.85 0.01,27.7 -0.01,41.55 -2.74,0 -5.48,0 -8.21,0 0,-34.35 0,-68.71 0.01,-103.06 z" />
  <path
     style="fill:#fff"
     id="path16"
     d="m 304.66714,17.32 c 3.19,-0.01 6.38,-0.01 9.58,0.01 12.53,32.43 24.95,64.89 37.44,97.34 12.5,-32.34 24.77,-64.79 37.4,-97.07 3.12,-0.67 6.4,-0.16 9.58,-0.26 -13.53,34.39 -27.3,68.7 -40.98,103.04 -4.04,0.01 -8.07,0.05 -12.09,-0.1 -13.58,-34.34 -27.38,-68.6 -40.93,-102.96 z" />
  <path
     style="fill:#fff"
     id="path18"
     d="m 413.51714,17.33 c 2.7,-0.02 5.41,-0.02 8.13,-0.02 0.23,34.35 0.04,68.71 0.09,103.07 -2.75,0.01 -5.5,0 -8.24,-0.05 0,-34.33 -0.03,-68.67 0.02,-103 z" />
  <path
     style="fill:#fff"
     id="path20"
     d="m 548.56714,17.34 c 25.26,-0.04 50.52,-0.04 75.78,0 0.02,2.97 0.02,5.94 0.02,8.91 -22.52,0.16 -45.05,0.02 -67.57,0.07 0.01,12.3 0,24.61 0.01,36.92 21.43,0.04 42.87,-0.03 64.31,0.03 0.03,2.98 0.03,5.97 0.03,8.96 -21.45,0.06 -42.9,0 -64.35,0.02 -0.01,13.02 0.05,26.04 -0.03,39.06 22.52,0.18 45.05,-0.02 67.58,0.1 0.02,2.95 0.02,5.92 0.02,8.88 -25.27,0.16 -50.55,0.16 -75.82,0 0.02,-34.32 -0.04,-68.63 0.02,-102.95 z" />
  <path
     style="fill:#f46c6c"
     id="path22"
     d="m 212.64714,26.32 c 17.95,0.07 35.9,-0.17 53.85,0.15 4.52,0.27 9.31,0.18 13.44,2.31 3.1,1.58 4.36,5.19 4.6,8.45 0.47,5.97 0.31,11.96 0.17,17.94 -0.17,4.19 -0.81,9.16 -4.65,11.66 -5.67,3.11 -12.41,2.63 -18.67,2.91 -16.24,0.19 -32.49,0.03 -48.74,0.09 -0.02,-14.5 -0.01,-29.01 0,-43.51 z" />
  <path
     style="fill:#fff"
     id="path24"
     d="m 9.03714,142.48 c 5.11,-0.51 10.25,-0.29 15.38,-0.32 234.67,-0.01 469.35,0 704.03,-0.01 2.11,0.03 4.23,0.22 6.36,0.44 -18.62,3.25 -37.02,7.61 -55.55,11.31 -99.27,20.73 -198.54,41.45 -297.81,62.19 -3.04,0.61 -6.02,-0.59 -8.99,-1.06 -114.39,-22.9 -228.79,-45.76 -343.18,-68.65 -6.74,-1.32 -13.46,-2.78 -20.24,-3.9 z" />
  <path
     style="fill:#fff"
     id="path26"
     d="m 405.45714,219.99 c 109.12,-22.14 218.18,-44.62 327.26,-66.92 -11.04,11.71 -22.49,23.04 -33.34,34.92 -93.95,10.32 -187.9,20.6 -281.86,30.91 -4.01,0.44 -8.02,0.97 -12.06,1.09 z" />
  <path
     style="fill:#fff"
     id="path28"
     d="m 392.98714,228.62 c 98.77,-8.62 197.48,-17.97 296.23,-26.72 -38.07,40.75 -76.35,81.31 -114.34,122.13 -56.84,-29.9 -113.65,-59.83 -170.48,-89.74 -3.79,-1.91 -7.41,-4.19 -11.41,-5.67 z" />
</svg>
